<svg width="512" height="512" viewBox="0 0 512 512" fill="none" xmlns="http://www.w3.org/2000/svg">
    <g filter="url(#filter0_d_1_63)">
        <rect x="50" y="50" width="412" height="412" rx="92" fill="#2F3241"/>
        <rect x="50" y="50" width="412" height="412" rx="92" fill="url(#paint0_linear_1_63)"/>
    </g>
    <path fill-rule="evenodd" clip-rule="evenodd" d="M250.545 278.829C253.474 275.901 258.223 275.901 261.152 278.829L362.752 380.429C365.68 383.358 370.429 383.358 373.358 380.429L380.429 373.358C383.358 370.429 383.358 365.68 380.429 362.752L278.829 261.152C275.9 258.223 275.901 253.474 278.829 250.545L380.429 148.945C383.358 146.017 383.358 141.268 380.429 138.339L373.358 131.268C370.429 128.339 365.68 128.339 362.752 131.268L261.152 232.868C258.223 235.796 253.474 235.796 250.545 232.868L148.945 131.268C146.016 128.339 141.268 128.339 138.339 131.268L131.268 138.339C128.339 141.268 128.339 146.017 131.268 148.945L232.867 250.545C235.796 253.474 235.796 258.223 232.867 261.152L131.268 362.752C128.339 365.68 128.339 370.429 131.268 373.358L138.339 380.429C141.268 383.358 146.016 383.358 148.945 380.429L250.545 278.829Z" fill="#74B1BE"/>
    <defs>
        <filter id="filter0_d_1_63" x="39" y="44.5" width="434" height="434" filterUnits="userSpaceOnUse" color-interpolation-filters="sRGB">
            <feFlood flood-opacity="0" result="BackgroundImageFix"/>
            <feColorMatrix in="SourceAlpha" type="matrix" values="0 0 0 0 0 0 0 0 0 0 0 0 0 0 0 0 0 0 127 0" result="hardAlpha"/>
            <feOffset dy="5.5"/>
            <feGaussianBlur stdDeviation="5.5"/>
            <feColorMatrix type="matrix" values="0 0 0 0 0 0 0 0 0 0 0 0 0 0 0 0 0 0 0.28 0"/>
            <feBlend mode="normal" in2="BackgroundImageFix" result="effect1_dropShadow_1_63"/>
            <feBlend mode="normal" in="SourceGraphic" in2="effect1_dropShadow_1_63" result="shape"/>
        </filter>
        <linearGradient id="paint0_linear_1_63" x1="256" y1="50" x2="256" y2="462" gradientUnits="userSpaceOnUse">
            <stop stop-opacity="0"/>
            <stop offset="1" stop-opacity="0.2"/>
        </linearGradient>
    </defs>
</svg>
