<svg width="128" height="128" viewBox="0 0 128 128" fill="none" xmlns="http://www.w3.org/2000/svg">
    <g filter="url(#filter0_d_1_88)">
        <rect x="12.5" y="12.5" width="103" height="103" rx="23" fill="#2F3241"/>
        <rect x="12.5" y="12.5" width="103" height="103" rx="23" fill="url(#paint0_linear_1_88)"/>
    </g>
    <path fill-rule="evenodd" clip-rule="evenodd" d="M62.6364 69.7074C63.3686 68.9751 64.5558 68.9751 65.288 69.7074L90.6879 95.1073C91.4202 95.8395 92.6074 95.8395 93.3396 95.1073L95.1074 93.3395C95.8396 92.6073 95.8396 91.4201 95.1074 90.6879L69.7074 65.2879C68.9752 64.5557 68.9752 63.3685 69.7074 62.6363L95.1074 37.2364C95.8396 36.5041 95.8396 35.3169 95.1074 34.5847L93.3396 32.8169C92.6074 32.0847 91.4202 32.0847 90.6879 32.8169L65.288 58.2169C64.5558 58.9491 63.3686 58.9491 62.6364 58.2169L37.2364 32.8169C36.5042 32.0847 35.317 32.0847 34.5848 32.8169L32.817 34.5847C32.0848 35.3169 32.0848 36.5041 32.817 37.2364L58.2169 62.6363C58.9492 63.3685 58.9492 64.5557 58.2169 65.2879L32.817 90.6879C32.0848 91.4201 32.0848 92.6073 32.817 93.3395L34.5848 95.1073C35.317 95.8395 36.5042 95.8395 37.2364 95.1073L62.6364 69.7074Z" fill="#74B1BE"/>
    <defs>
        <filter id="filter0_d_1_88" x="9.75" y="11.125" width="108.5" height="108.5" filterUnits="userSpaceOnUse" color-interpolation-filters="sRGB">
            <feFlood flood-opacity="0" result="BackgroundImageFix"/>
            <feColorMatrix in="SourceAlpha" type="matrix" values="0 0 0 0 0 0 0 0 0 0 0 0 0 0 0 0 0 0 127 0" result="hardAlpha"/>
            <feOffset dy="1.375"/>
            <feGaussianBlur stdDeviation="1.375"/>
            <feColorMatrix type="matrix" values="0 0 0 0 0 0 0 0 0 0 0 0 0 0 0 0 0 0 0.28 0"/>
            <feBlend mode="normal" in2="BackgroundImageFix" result="effect1_dropShadow_1_88"/>
            <feBlend mode="normal" in="SourceGraphic" in2="effect1_dropShadow_1_88" result="shape"/>
        </filter>
        <linearGradient id="paint0_linear_1_88" x1="64" y1="12.5" x2="64" y2="115.5" gradientUnits="userSpaceOnUse">
            <stop stop-opacity="0"/>
            <stop offset="1" stop-opacity="0.2"/>
        </linearGradient>
    </defs>
</svg>
